HIERARCHY
ROOT SpineBase
{
  OFFSET 0.000000 0.000000 0.000000
  CHANNELS 6 Xposition Yposition Zposition Zrotation Xrotation Yrotation
  JOINT SpineMid
  {
    OFFSET -0.000000 25.410719 0.000000
    CHANNELS 3 Zrotation Xrotation Yrotation
    JOINT SpineShoulder
    {
      OFFSET 0.213838 19.115956 -0.677464
      CHANNELS 3 Zrotation Xrotation Yrotation
      JOINT Neck
      {
        OFFSET 0.109763 6.429548 -0.504422
        CHANNELS 3 Zrotation Xrotation Yrotation
        JOINT Head
        {
          OFFSET 4.287350 11.704222 -1.408949
          CHANNELS 3 Zrotation Xrotation Yrotation
          End Site
          {
            OFFSET 0 0 0
          }
        }
      }
      JOINT ShoulderLeft
      {
        OFFSET -11.265018 1.591397 -7.853512
        CHANNELS 3 Zrotation Xrotation Yrotation
        JOINT ElbowLeft
        {
          OFFSET -5.244946 -17.805599 -8.518216
          CHANNELS 3 Zrotation Xrotation Yrotation
          JOINT WristLeft
          {
            OFFSET 7.936567 -12.300845 -16.276376
            CHANNELS 3 Zrotation Xrotation Yrotation
            JOINT HandLeft
            {
              OFFSET 3.844193 -0.550494 -5.431401
              CHANNELS 3 Zrotation Xrotation Yrotation
              JOINT HandTipLeft
              {
                OFFSET 1.121385 -0.712865 -4.550508
                CHANNELS 3 Zrotation Xrotation Yrotation
                End Site
                {
                  OFFSET 0 0 0
                }
              }
              JOINT ThumbLeft
              {
                OFFSET 4.137169 0.570378 -3.156916
                CHANNELS 3 Zrotation Xrotation Yrotation
                End Site
                {
                  OFFSET 0 0 0
                }
              }
            }
          }
        }
      }
      JOINT ShoulderRight
      {
        OFFSET 14.886453 -1.286201 9.694151
        CHANNELS 3 Zrotation Xrotation Yrotation
        JOINT ElbowRight
        {
          OFFSET 3.563267 -21.693688 3.416135
          CHANNELS 3 Zrotation Xrotation Yrotation
          JOINT WristRight
          {
            OFFSET 1.305774 0.520568 -21.601638
            CHANNELS 3 Zrotation Xrotation Yrotation
            JOINT HandRight
            {
              OFFSET 1.149191 -10.793993 4.980016
              CHANNELS 3 Zrotation Xrotation Yrotation
              JOINT HandTipRight
              {
                OFFSET 11.016450 0.332483 -0.480928
                CHANNELS 3 Zrotation Xrotation Yrotation
                End Site
                {
                  OFFSET 0 0 0
                }
              }
              JOINT ThumbRight
              {
                OFFSET 9.947387 1.220560 -2.347318
                CHANNELS 3 Zrotation Xrotation Yrotation
                End Site
                {
                  OFFSET 0 0 0
                }
              }
            }
          }
        }
      }
    }
  }
  JOINT HipLeft
  {
    OFFSET -5.897550 2.147907 -5.984279
    CHANNELS 3 Zrotation Xrotation Yrotation
    JOINT KneeLeft
    {
      OFFSET 7.575239 10.012534 -35.873013
      CHANNELS 3 Zrotation Xrotation Yrotation
      JOINT AnkleLeft
      {
        OFFSET -2.567773 -37.182553 -0.106722
        CHANNELS 3 Zrotation Xrotation Yrotation
        JOINT FootLeft
        {
          OFFSET 5.062102 -6.375601 -2.451678
          CHANNELS 3 Zrotation Xrotation Yrotation
          End Site
          {
            OFFSET 0 0 0
          }
        }
      }
    }
  }
  JOINT HipRight
  {
    OFFSET 7.029062 1.114583 -0.011179
    CHANNELS 3 Zrotation Xrotation Yrotation
    JOINT KneeRight
    {
      OFFSET 26.771646 1.589793 -13.071442
      CHANNELS 3 Zrotation Xrotation Yrotation
      JOINT AnkleRight
      {
        OFFSET -5.391345 -28.545689 -9.844574
        CHANNELS 3 Zrotation Xrotation Yrotation
        JOINT FootRight
        {
          OFFSET 5.941262 -1.812830 -11.590890
          CHANNELS 3 Zrotation Xrotation Yrotation
          End Site
          {
            OFFSET 0 0 0
          }
        }
      }
    }
  }
}
MOTION
Frames: 5
Frame Time: 0.033333
-64.133284 31.555648 347.267193 0.000000 0.000000 -24.800611 -0.000000 -0.000000 24.800611 -0.000000 0.000000 0.000000 -0.000000 0.000000 0.000000 0.000000 0.000000 0.000000 -0.000000 0.000000 0.000000 -0.000000 0.000000 0.000000 -0.000000 0.000000 0.000000 -0.000000 0.000000 0.000000 0.000000 0.000000 0.000000 0.000000 0.000000 0.000000 -0.000000 0.000000 0.000000 -0.000000 0.000000 0.000000 -0.000000 0.000000 0.000000 -0.000000 0.000000 0.000000 0.000000 0.000000 0.000000 0.000000 0.000000 0.000000 -0.000000 -0.000000 24.800611 -0.000000 0.000000 0.000000 -0.000000 0.000000 0.000000 0.000000 0.000000 0.000000 -0.000000 -0.000000 24.800611 -0.000000 0.000000 0.000000 -0.000000 0.000000 0.000000 0.000000 0.000000 0.000000
-64.231128 31.564997 347.318008 -0.164992 -0.028744 -24.469905 0.138266 0.094504 24.469750 -0.000000 0.000000 0.000000 -0.000000 0.000000 0.000000 0.000000 0.000000 0.000000 -0.000000 0.000000 0.000000 -0.000000 0.000000 0.000000 -1.704142 -2.617071 -2.239753 1.453639 2.719843 3.178485 0.000000 0.000000 0.000000 0.000000 0.000000 0.000000 -1.710923 -0.364251 -0.335364 1.529194 -11.063551 3.929806 -4.235463 24.199180 -3.455095 -1.488688 -14.682424 19.563103 0.000000 0.000000 0.000000 0.000000 0.000000 0.000000 0.138266 0.094504 24.469750 -0.000000 0.000000 0.000000 0.603221 0.728661 0.340492 0.000000 0.000000 0.000000 0.138266 0.094504 24.469750 -0.000000 0.000000 0.000000 -0.000000 0.000000 0.000000 0.000000 0.000000 0.000000
-64.319756 31.577214 347.365592 -0.305917 -0.062862 -24.182626 0.253321 0.182662 24.182054 -0.000000 0.000000 0.000000 -0.000000 0.000000 0.000000 0.000000 0.000000 0.000000 -0.000000 0.000000 0.000000 -0.164722 -0.905358 -0.371725 -2.955079 -3.783838 -3.727446 2.645662 4.828820 4.938433 0.000000 0.000000 0.000000 0.000000 0.000000 0.000000 -2.773410 -0.672122 -0.565209 2.984741 -17.259841 6.816448 -11.118236 46.164540 -2.785165 0.235960 -34.683882 42.688398 0.000000 0.000000 0.000000 0.000000 0.000000 0.000000 0.355018 -0.890884 23.727483 0.338911 1.023716 0.452172 1.070760 1.153877 0.488126 0.000000 0.000000 0.000000 0.253321 0.182662 24.182054 -0.000000 0.000000 0.000000 -0.000000 0.000000 0.000000 0.000000 0.000000 0.000000
-64.399167 31.592302 347.409943 -0.422849 -0.102370 -23.938309 0.344943 0.265133 23.937133 -0.000000 0.000000 0.000000 0.301133 -0.840020 0.346196 0.000000 0.000000 0.000000 -0.607098 0.800277 0.058652 0.332467 -2.169809 -0.589375 -3.831583 -4.688718 -4.898236 3.580817 6.377231 5.109045 0.000000 0.000000 0.000000 0.000000 0.000000 0.000000 -3.254892 -0.941902 -0.696507 3.955524 -20.021672 9.052666 -26.877156 64.744519 6.648193 12.103246 -54.987044 69.753899 0.000000 0.000000 0.000000 0.000000 0.000000 0.000000 0.478446 -1.060676 23.427291 0.404681 1.269588 0.506285 1.410662 1.278778 0.450796 0.000000 0.000000 0.000000 0.344943 0.265133 23.937133 -0.000000 0.000000 0.000000 -0.000000 0.000000 0.000000 0.000000 0.000000 0.000000
-64.469361 31.610259 347.451063 -0.515840 -0.147292 -23.736561 0.412920 0.342467 23.734664 -0.000000 0.000000 0.000000 0.451889 -1.030816 0.436225 0.000000 0.000000 0.000000 -0.748858 0.922943 0.091886 0.347717 -2.761491 -0.769466 -4.128976 -4.804435 -5.415090 3.970373 6.531856 4.676338 0.000000 0.000000 0.000000 0.000000 0.000000 0.000000 -3.186517 -1.185762 -0.731811 4.273520 -20.011342 10.865220 -66.926769 75.157740 39.171864 47.244720 -65.936781 113.371033 0.000000 0.000000 0.000000 0.000000 0.000000 0.000000 0.571602 -1.046260 23.283589 0.403242 1.338345 0.447340 1.626023 1.103061 0.231405 0.000000 0.000000 0.000000 0.412920 0.342467 23.734664 -0.000000 0.000000 0.000000 -0.000000 0.000000 0.000000 0.000000 0.000000 0.000000
